<?xml version="1.0" encoding="utf-8"?>
<!-- Generator: Adobe Illustrator 24.0.2, SVG Export Plug-In . SVG Version: 6.00 Build 0)  -->
<svg version="1.1" id="Calque_1" xmlns="http://www.w3.org/2000/svg" xmlns:xlink="http://www.w3.org/1999/xlink" x="0px" y="0px"
	 viewBox="0 0 553.8 553.8" style="enable-background:new 0 0 553.8 553.8;" xml:space="preserve">
<style type="text/css">
	.st0{fill:#020202;}
</style>
<g transform="translate(0.000000,500.000000) scale(0.100000,-0.100000)">
	<circle class="st0" cx="4428.9" cy="1905" r="1"/>
	<path class="st0" d="M4768.9,1019c0-20-83-83-118-90l-32-6v49c0,47,2,50,34,61c19,7,40,19,46,27c16,20,19,19,47-7
		C4758.9,1041,4768.9,1026,4768.9,1019z"/>
	<path class="st0" d="M4818.9,1090c-17-10-60,23-60,45c0,24,4,25,41,3C4829.9,1120,4836.9,1101,4818.9,1090z"/>
	<path class="st0" d="M4558.9,961v-59l-55,6c-59,6-145,41-145,59c0,10,89,97,100,98c3,0,26-10,52-22l47-23L4558.9,961z"/>
	<path class="st0" d="M4371.9,1070c-31-27-61-50-67-50c-13,0-65,103-68,136c-3,23,0,24,62,30c126,11,117,13,124-28
		C4427.9,1122,4425.9,1118,4371.9,1070z"/>
	<path class="st0" d="M4412.9,1305c0-23-7-45-13-50c-20-11-163-22-172-13c-12,12-23,98-15,119c4,11,13,14,29,10c12-3,47-9,77-12
		s64-7,75-9C4410.9,1348,4413.9,1341,4412.9,1305z"/>
	<path class="st0" d="M4446.9,1448l-9-43h-52c-48,0-152,22-164,34c-3,3-2,30,2,61c5,46,10,55,23,51c9-2,42-12,72-20s72-18,92-21
		c21-3,39-9,41-13S4451.9,1471,4446.9,1448z"/>
	<path class="st0" d="M4498.9,1674c0-4-5-31-11-59c-10-49-11-50-47-49c-20,0-73,10-117,22c-86,24-92,30-81,92c6,32,8,33,39,24
		c17-5,73-12,124-15C4456.9,1685,4498.9,1678,4498.9,1674z"/>
	<path class="st0" d="M4538.9,2074l-6-127c-4-70-9-143-13-162l-7-35l-72-3c-83-3-182,12-194,31c-4,6-8,33-8,60v47h65
		c51,0,72-5,94-21c36-26,65-19,81,21c24,58-41,107-85,64c-20-20-151-16-164,5c-10,16-23,100-17,110c2,3,77,7,165,8L4538.9,2074z"/>
	<path class="st0" d="M4500.9,2347l-48-4c-66-5-154,2-154,14c0,5,17,27,38,50c30,32,49,43,83,48c24,4,47,8,51,9c4,0,9-3,12-7
		c3-5,8-31,12-59L4500.9,2347z"/>
	<path class="st0" d="M4281.9,2871c-21-4-50-9-65-12c-28-6-28-5-28,50v55l48,3c59,4,59,4,77-39S4328.9,2879,4281.9,2871z"/>
	<path class="st0" d="M3512.9,3435c-29,0-41,24-24,45c16,19,34,19,49,1C3554.9,3461,3539.9,3435,3512.9,3435z"/>
	<path class="st0" d="M3103.9,3240c0-30-39-27-43,3c-3,20,0,23,20,20C3095.9,3261,3103.9,3253,3103.9,3240z"/>
	<path class="st0" d="M2031.9,3081c-35,22-23,74,17,74c10,0,23-7,30-15C2104.9,3108,2065.9,3059,2031.9,3081z"/>
	<path class="st0" d="M1853.9,3415c0-18-6-26-23-28c-24-4-38,18-28,44c3,9,15,14,28,12C1847.9,3441,1853.9,3433,1853.9,3415z"/>
	<path class="st0" d="M3683.9,835c0-32-3-35-29-35c-40,0-56,27-31,55c10,11,28,20,39,18C3679.9,871,3683.9,863,3683.9,835z"/>
	<path class="st0" d="M3278.9,1689c0-9-7-14-17-12c-25,5-28,28-4,28C3269.9,1705,3278.9,1699,3278.9,1689z"/>
	<path class="st0" d="M3436.9,1323c-14,14-3,42,16,42c7,0,16-6,19-14C3479.9,1331,3451.9,1308,3436.9,1323z"/>
	<path class="st0" d="M2863.9,820c0-12-10-23-28-29c-37-13-52,2-31,32C2824.9,852,2863.9,849,2863.9,820z"/>
	<path class="st0" d="M1889.9,795c-37,0-44,10-24,32s36,23,53,3C1934.9,810,1922.9,795,1889.9,795z"/>
	<path class="st0" d="M1153.9,815c0-16-37-25-62-16c-13,5-13,9-2,22C1104.9,840,1153.9,836,1153.9,815z"/>
	<path class="st0" d="M2368.9,2394c0-12-29-24-37-16c-3,4-3,13,0,21C2337.9,2415,2368.9,2410,2368.9,2394z"/>
	<path class="st0" d="M1725.9,2321c-17,6-23,35-10,47c11,12,41,7,46-7C1769.9,2340,1745.9,2313,1725.9,2321z"/>
	<circle class="st0" cx="928.9" cy="1165" r="2"/>
	<path class="st0" d="M1124.9,1448c-16,6-22,38-9,50c10,11,30,8,42-6C1172.9,1473,1147.9,1439,1124.9,1448z"/>
	<path class="st0" d="M2723.9,1690c0-30-39-27-43,3c-3,20,0,23,20,20C2715.9,1711,2723.9,1703,2723.9,1690z"/>
	<path class="st0" d="M2623.9,1314c0-17-6-24-20-24c-23,0-33,34-13,46C2610.9,1349,2623.9,1341,2623.9,1314z"/>
	<path class="st0" d="M1648.9,1250c0-8-6-15-14-15c-17,0-28,14-19,24C1627.9,1271,1648.9,1265,1648.9,1250z"/>
	<path class="st0" d="M1743.9,1830c-37,13-45,21-45,41c0,31,17,64,32,64c7,0,29-17,50-37C1844.9,1835,1824.9,1799,1743.9,1830z"/>
	<path class="st0" d="M2116.9,1805c-29-6-72-17-96-25c-62-22-129-20-141,4c-16,29,13,45,119,66c52,10,102,22,110,26
		c23,13,56,10,69-5C2199.9,1845,2173.9,1818,2116.9,1805z"/>
	<path class="st0" d="M4883.9,2364c-87-90-229-165-365-194c-146-31-376-12-503,41c-73,31-187,95-187,106c0,24,79,88,109,88
		c7,0,30-13,50-29c143-112,420-157,631-102c90,24,181,62,249,105C4924.9,2415,4928.9,2411,4883.9,2364z"/>
	<path class="st0" d="M3865.9,2446c-24-16-49-36-56-45c-8-9-26-16-42-16c-23,0-33,8-54,43c-37,64-34,107,12,147c32,28,41,32,77,27
		c30-4,50-15,73-41C3921.9,2511,3918.9,2483,3865.9,2446z"/>
	<path class="st0" d="M4453.9,2515c-3-5-22-10-41-10c-49,0-82-21-134-84c-25-30-52-55-60-55c-17-1-93,24-122,40c-25,14-23,25,17,73
		c48,59,46,86-11,159l-47,59l48,48c44,45,54,50,124,63c129,25,124,27,159-53c17-38,27-72,23-74c-4-3-32-8-62-12c-41-6-60-14-81-37
		c-16-16-28-36-28-43c0-27,30-27,58-1c19,18,43,27,83,32l57,7l12-51C4454.9,2549,4457.9,2521,4453.9,2515z"/>
	<path class="st0" d="M3224.9,3487c-9-110-19-122-78-94c-23,11-86,37-138,57s-120,47-150,60s-75,29-100,35c-25,7-49,16-55,20
		c-5,4-37,16-70,25c-103,30-145,52-138,72c10,28,23,41,72,75c52,35,92,48,136,42c17-2,62-6,100-9c39-3,95-12,125-20
		c30-7,100-25,155-39C3222.9,3676,3237.9,3652,3224.9,3487z"/>
	<path class="st0" d="M2929.9,3267c-4-8-42-18-87-23c-43-6-83-14-89-18c-5-4-59-18-120-31c-60-13-114-26-120-30c-5-4-34-13-63-20
		c-41-9-56-10-65-1c-16,16-15,219,2,296c12,55,45,135,56,135c2,0,50-15,107-34s141-48,188-66c47-17,113-41,148-54s67-27,73-33
		C2968.9,3379,2948.9,3295,2929.9,3267z"/>
	<path class="st0" d="M3053.9,3130l-217-216c-205-204-216-218-199-233c10-9,21-16,25-16s43-32,87-71c44-38,86-68,92-66
		c9,3,100,166,153,275c3,6,11,12,16,12c20,0-3-70-62-188c-33-66-60-124-60-130c0-20,53-52,84-52c42,0,87,47,111,115
		c9,28,26,109,37,180c11,72,24,139,29,150s10,70,12,130l2,110H3053.9z M3036.9,2863c-6,6-7,15-4,21c10,16,36,13,36-3
		C3068.9,2861,3049.9,2850,3036.9,2863z"/>
	<path class="st0" d="M3013.9,3155l-160-155c-88-85-164-154-168-155c-4,0-27-18-50-40s-48-39-56-38c-26,5-116,135-148,213l-31,76
		l21,14c12,7,40,17,62,21c22,3,45,10,50,14c6,4,55,17,110,29s109,26,120,32c11,5,53,16,94,24c41,9,77,18,80,21c12,12,44-3,59-29
		L3013.9,3155z"/>
	<path class="st0" d="M4218.9,3015c-20,0-46-7-58-16c-19-13-22-24-22-84v-68l-60-55c-52-47-60-59-60-90c0-25,10-48,33-79
		c18-24,36-49,41-56c8-14-21-67-53-96c-19-17-20-17-32,6c-24,46-102,137-138,162c-46,32-101,34-154,6c-20-11-43-20-50-20
		s-78,49-158,109c-165,122-159,113-159,262c0,57-4,80-15,89c-31,25-38-2-33-127c3-65,8-125,12-133s66-58,138-110
		c197-144,180-123,171-207l-8-71l-112,45c-93,37-113,49-113,66c0,42-51,72-77,46c-14-14-58,8-97,50c-27,28-28,32-18,73
		c19,75,22,95,41,267c10,93,22,174,25,180c4,6,27,11,52,11c37,0,44,3,44,20s-7,20-40,20c-26,0-43,5-46,14c-3,8,4,65,15,127
		c31,177,34,227,17,284c-17,55-15,60,30,69c27,6,35,2,77-42c54-59,69-109,43-152c-22-38-20-72,5-104c40-51,122-26,135,41
		c6,28,1,37-35,73c-28,28-41,49-41,68c0,16-13,49-30,75c-16,26-30,50-30,52c0,11,160,4,222-10c124-26,191-66,308-184
		c172-173,228-258,270-409C4284.9,3023,4281.9,3015,4218.9,3015z"/>
	<path class="st0" d="M3539.9,1661l-33-28c-18-15-45-32-60-39c-24-10-31-8-72,25c-30,26-46,47-50,70c-4,19-13,40-22,47
		c-21,18-14,180,11,229c19,38,54,80,66,80c5,0,13-19,19-42c6-24,15-52,20-63s35-78,65-150L3539.9,1661z"/>
	<path class="st0" d="M3646.9,925l-28-15c-22-11-36-12-55-5c-49,19-92,12-128-19l-33-30l-59,33c-32,18-68,44-78,59
		c-19,25-19,27-3,52c10,15,32,43,50,63c44,50,50,69,26,89c-15,13-20,30-20,66c0,78-61,224-123,296c-8,9-45,60-82,115
		c-64,94-67,101-61,143c11,81,64,223,109,291c57,87,117,188,117,198c0,4,10,18,22,31c28,30,33,21,46-74c12-88,12-91-15-128
		c-11-17-34-56-51-87c-28-51-31-67-35-162c-3-86-7-109-22-126c-18-20-18-24-4-48c10-19,24-28,46-30c23-2,47-20,97-72
		c74-77,82-105,46-173c-36-66-21-111,38-119c26-4,37,0,53,20c28,36,24,69-11,100c-27,24-30,32-30,88c0,66,7,77,67,108
		c32,16,33,16,50-11c15-23,19-55,21-211c2-101,1-194-2-207c-4-16-21-28-58-42c-29-11-53-26-53-34c0-14,11-15,75-7c19,2,26-3,33-27
		c5-16,19-51,32-78L3646.9,925z"/>
	<path class="st0" d="M2838.9,895l-24-10c-14-5-37-23-52-40l-28-30l-27,30c-41,45-87,42-143-10c-45-42-67-47-148-34
		c-35,6-38,9-38,39c0,17,7,52,16,78l16,47h383l23-35L2838.9,895z"/>
	<path class="st0" d="M2783.9,1191c-9-31-17-81-17-111l-1-55h-117v113c0,75,4,117,12,125c17,17,127,16,134-2
		C2797.9,1254,2792.9,1222,2783.9,1191z"/>
	<path class="st0" d="M2655.9,1547c-7-90-29-135-75-148c-29-8-62-51-62-81c0-14,15-39,35-60c34-35,35-38,35-119c0-116,1-114-86-114
		c-41,0-74,4-74,9s7,94,16,198c10,116,14,235,11,309c-3,67-4,124-2,125c2,2,41,3,87,1c60-3,88-8,102-20
		C2658.9,1632,2660.9,1620,2655.9,1547z"/>
	<path class="st0" d="M3198.9,2290c-184-292-174-269-234-508c-30-118-72-266-94-329l-39-113l-76-3c-68-3-77-1-87,17
		c-8,17-6,28,14,58c18,28,26,59,31,115c6,71,10,81,41,112c40,40,43,68,9,101c-30,31-85,33-124,6c-24-17-37-19-104-12
		c-42,4-82,12-87,17c-15,15-51,320-53,454c-1,72,3,137,12,173c9,38,11,64,5,72c-5,7-37,45-71,84c-35,39-63,78-63,86
		c0,12,155,144,172,145c3,0,25-23,48-51c54-64,240-224,349-300c68-47,92-59,123-59c73,0,129,47,173,143c15,31,28,57,31,57
		c2,0,26-15,53-32c26-18,56-38,66-43C3309.9,2470,3300.9,2451,3198.9,2290z"/>
	<path class="st0" d="M1105.9,885c-6,0-26-14-44-32l-32-31l-21,26c-17,22-30,27-65,27c-37,0-49-6-77-34c-31-32-39-35-98-36
		c-100-2-93-6-86,49c4,27,11,63,17,80l11,31h387l16-30C1129.9,904,1126.9,885,1105.9,885z"/>
	<path class="st0" d="M996.9,1355c-35-63-61-98-81-109c-69-37-88-90-46-132c14-14,19-30,17-52l-3-32h-150l1,55c1,38,16,98,49,190
		c26,74,54,159,63,188c8,28,18,52,21,52s42-11,88-25c45-14,84-29,87-34S1025.9,1406,996.9,1355z"/>
	<path class="st0" d="M1882.9,895c-9,0-32-16-50-36l-34-36l-36,31c-47,42-75,40-131-11c-39-37-52-43-90-43c-27,0-47,5-53,14
		c-4,8-8,80-8,160s-3,163-7,183c-7,34-5,39,20,48c59,23,125,1,125-42c0-12,7-44,15-72s17-63,20-78c7-34,35-38,35-5c0,12-5,59-12,105
		c-8,63-8,86,0,94c20,20,15,86-7,98c-33,17-64,11-90-19c-30-33-101-50-119-28c-6,7-22,44-36,82c-30,81-38,61,79,192
		c39,43,82,94,96,113c23,31,33,35,85,41c107,11,105,11,99-13c-3-13-12-54-21-93c-21-87-29-238-16-285c6-19,19-75,30-125
		c25-117,39-150,84-209C1902.9,907,1906.9,895,1882.9,895z"/>
	<path class="st0" d="M886.9,2548c-8-24-62-63-86-63c-8,0-16,10-20,22c-3,11-18,46-35,77c-27,50-29,62-24,121c8,98,118,350,153,350
		c8,0,14-3,15-7C894.9,2999,892.9,2564,886.9,2548z"/>
	<path class="st0" d="M1656.9,1985c-40-185-114-298-368-566c-134-141-171-209-195-356l-6-38h-139v30c0,19,7,33,19,39
		c26,15,43,65,31,97c-8,21-2,39,43,117l52,91l44,1c55,1,83,31,79,83c-5,63-92,98-139,56c-17-16-24-15-106,8l-88,24l5,64
		c12,160,3,373-24,525c-14,83-30,166-36,185c-5,19-10,42-10,50c1,16,67,69,86,70c7,0,46-29,89-64c52-43,88-66,113-70
		c20-3,152-6,293-6c227,0,258-2,270-17C1690.9,2284,1682.9,2102,1656.9,1985z"/>
	<path class="st0" d="M2232.9,2630c-6-30,2-43,78-137l22-28l-27-28c-32-34-34-51-7-85c18-23,20-40,20-190v-164l-72-21
		c-128-37-223-60-301-72c-73-11-77-10-115,13c-21,14-51,39-65,57c-26,31-27,35-27,161v129l25,6c51,13,72,81,38,123
		c-10,12-34,24-53,27c-29,5-40,1-63-20l-28-26h-561l-84,82l-84,82v273c0,175-4,273-10,273c-63,0,186,287,335,387l54,35l57-61l56-61
		h164c161,0,163,0,188-25c32-32,87-34,116-5c47,47,11,140-55,140c-35,0-75-24-75-46c0-12-27-14-155-14h-156l-44,47
		c-24,27-41,51-37,54c15,14,143,60,208,75c108,25,194,32,409,30l200-1v-110l-170-10l4-158l3-158l-26-24c-50-46-25-139,40-151
		c94-17,134,99,57,166c-24,21-25,23-20,148l4,127l69,3c37,2,74,8,81,13c7,6,13,41,15,82l3,72l59-2c32-1,60-4,63-6c2-3-5-22-16-42
		c-11-21-30-81-42-133c-40-177-15-377,69-554l40-82l-47-41C2269.9,2693,2238.9,2659,2232.9,2630z"/>
	<path class="st0" d="M457,1557.4c6.5-6,50.7,25.6,89.8,66.8c28.9,30.5,55,72.4,63,100.9c13.2,46.8,9.3,92.9,1,116.2
		c-3.6,10.1-3.9,21-0.5,31.1c6.8,20.5,23.4,70.3,30.5,109.7c11.1,60.9,51.5,416.9,55.5,453.2s-1.1,132.6-18.1,151.3
		s-42.3-15.2-44.3-37.4s-3.2-187.2-6-236.2c-3.8-67.7-13-208.5-18.5-251.1c-4-31.1-30.3-139.2-41-174.5c-3-9.8-9-18.4-17.3-24.4
		c-26.4-19-44.5-22.2-63.2-43c-17-19-28.6-101.1-34.9-145.5C445.9,1623.2,446.1,1567.5,457,1557.4z"/>
</g>
</svg>
