<?xml version="1.0" standalone="no"?>
<!DOCTYPE svg PUBLIC "-//W3C//DTD SVG 20010904//EN"
 "http://www.w3.org/TR/2001/REC-SVG-20010904/DTD/svg10.dtd">
<svg version="1.0" xmlns="http://www.w3.org/2000/svg"
 width="500.000000pt" height="500.000000pt" viewBox="0 0 500.000000 500.000000"
 preserveAspectRatio="xMidYMid meet">

<g transform="translate(0.000000,500.000000) scale(0.100000,-0.100000)"
fill="#000000" stroke="none">
<path d="M2314 4104 c-23 -8 -68 -39 -101 -68 l-59 -54 -259 5 c-525 10 -726
-30 -974 -195 -208 -139 -401 -378 -495 -614 -70 -175 -95 -344 -96 -639 0
-267 -26 -379 -95 -412 -56 -27 -66 -52 -81 -209 -7 -78 -11 -145 -8 -147 19
-20 162 107 196 174 24 45 28 128 9 163 -10 19 -8 38 8 105 24 98 48 259 57
380 9 134 28 117 67 -63 40 -182 60 -377 54 -515 -6 -143 -18 -195 -97 -430
-34 -100 -65 -211 -70 -250 -4 -38 -15 -97 -24 -130 -10 -33 -20 -90 -23 -126
-9 -103 -16 -101 312 -94 149 3 280 8 292 11 14 2 25 16 33 38 12 37 -2 90
-46 178 -37 72 -33 150 10 236 36 71 109 162 131 162 14 0 48 -78 66 -154 8
-34 10 -107 6 -236 -8 -253 -39 -230 307 -230 165 0 275 4 287 10 14 8 19 21
19 56 0 57 -16 95 -77 180 -113 157 -150 376 -106 624 l19 105 74 7 c89 9 197
38 300 80 107 43 123 43 132 -7 4 -22 10 -125 14 -230 8 -231 -5 -391 -48
-565 -37 -154 -41 -226 -14 -246 16 -11 75 -14 314 -14 183 0 301 4 313 10 33
18 26 85 -17 156 -79 128 -84 138 -84 184 0 25 12 77 26 115 14 39 43 126 65
195 57 180 78 230 95 223 15 -5 95 -110 155 -203 61 -95 73 -158 54 -277 -3
-17 -21 -54 -40 -82 -19 -28 -35 -62 -35 -75 0 -57 115 -144 258 -196 91 -33
265 -55 309 -39 50 18 43 121 -13 212 l-39 62 3 225 c4 295 6 286 -143 630
-67 153 -103 271 -114 372 -15 130 -14 188 2 188 14 0 189 -65 226 -85 14 -7
43 -31 63 -54 22 -25 45 -41 59 -41 12 0 56 -20 98 -43 64 -37 161 -79 233
-101 17 -5 28 -46 54 -201 14 -87 12 -235 -6 -355 -6 -41 -11 -134 -11 -207
-1 -118 2 -141 27 -215 33 -101 56 -139 121 -199 82 -77 192 -106 325 -87 82
12 145 50 213 127 51 58 100 153 92 175 -3 8 -47 41 -98 75 -103 68 -113 68
-124 -4 -3 -26 -17 -58 -32 -75 -23 -28 -30 -31 -76 -28 -67 4 -89 33 -95 121
-3 49 4 94 32 203 19 76 43 182 52 234 9 52 17 97 19 101 2 3 9 81 15 175 7
102 16 173 23 180 7 6 33 18 59 27 104 34 262 168 341 288 42 64 89 182 81
203 -9 23 -35 28 -60 11 -13 -9 -24 -19 -24 -23 0 -15 -117 -131 -163 -162
-66 -44 -186 -98 -234 -106 -46 -7 -44 -10 -78 126 -27 106 -70 238 -115 350
-51 128 -82 220 -110 324 -28 105 -69 185 -138 270 -68 84 -191 210 -247 253
-152 116 -376 152 -633 102 l-115 -23 -146 37 c-240 60 -370 72 -457 41z m266
-76 c41 -5 93 -16 115 -23 22 -8 78 -23 125 -34 122 -29 139 -58 126 -219 -9
-110 -19 -122 -78 -94 -23 11 -86 37 -138 57 -52 20 -113 45 -135 55 -22 10
-65 25 -95 35 -30 9 -68 23 -85 30 -16 7 -50 19 -75 25 -58 16 -130 48 -130
58 0 30 100 109 155 122 32 8 96 5 215 -12z m822 -53 c124 -26 191 -66 308
-184 113 -115 189 -209 224 -281 26 -51 72 -208 64 -216 -3 -2 -28 -8 -56 -13
-74 -11 -82 -21 -82 -101 l0 -67 -60 -56 c-74 -68 -79 -100 -27 -169 52 -68
52 -66 16 -119 -19 -27 -37 -49 -41 -49 -4 0 -13 10 -19 23 -22 41 -90 122
-131 155 -50 39 -100 42 -164 11 -23 -12 -48 -19 -56 -17 -7 3 -76 53 -154
111 -159 118 -154 109 -154 258 0 57 -4 80 -15 89 -31 25 -38 -2 -33 -127 3
-65 8 -125 12 -133 4 -8 66 -58 138 -110 196 -142 180 -123 171 -207 l-8 -71
-112 45 c-93 37 -113 49 -113 66 0 42 -51 72 -77 46 -14 -14 -58 8 -97 50 -27
28 -28 32 -18 73 19 75 22 95 41 267 10 93 22 174 25 180 4 6 27 11 52 11 37
0 44 3 44 20 0 17 -7 20 -40 20 -26 0 -43 5 -46 14 -3 8 4 65 15 127 31 177
34 227 17 284 -17 55 -15 60 30 69 27 6 35 2 77 -42 54 -58 67 -104 43 -150
-35 -67 -4 -132 63 -132 44 0 68 21 77 68 6 29 2 37 -35 71 -30 28 -41 46 -41
68 0 16 -13 50 -30 76 -16 26 -30 50 -30 52 0 11 160 4 222 -10z m-1497 -125
l0 -55 -65 -3 c-117 -4 -107 11 -102 -167 l5 -155 -27 -25 c-20 -18 -26 -34
-26 -65 0 -77 74 -116 133 -70 48 38 42 107 -13 153 -20 17 -21 25 -17 145 l3
127 69 3 c38 2 75 8 82 13 7 6 13 41 15 82 l3 72 59 -2 c32 -1 60 -4 63 -7 2
-2 -5 -22 -16 -45 -41 -80 -63 -205 -58 -331 5 -134 28 -229 83 -345 21 -44
38 -82 39 -85 0 -3 -39 -41 -87 -83 -118 -105 -122 -130 -37 -224 22 -24 39
-46 39 -51 0 -5 -11 -19 -25 -32 -30 -28 -31 -49 -5 -83 18 -23 20 -40 20
-190 l0 -164 -72 -21 c-118 -34 -228 -60 -305 -72 -68 -11 -73 -10 -111 13
-21 14 -51 39 -65 57 -26 31 -27 35 -27 161 l0 129 25 6 c56 14 73 87 30 129
-32 33 -76 33 -111 0 l-27 -25 -280 0 -279 0 -84 82 -84 82 0 268 c0 185 -4
274 -11 287 -10 15 -4 29 43 92 64 86 217 235 295 287 52 34 56 35 68 18 8
-10 32 -38 55 -62 l41 -44 164 0 c162 0 164 0 189 -25 32 -32 87 -34 116 -5
47 47 11 140 -55 140 -35 0 -75 -24 -75 -46 0 -12 -27 -14 -155 -14 l-156 0
-44 47 c-24 26 -42 50 -39 54 8 13 170 67 249 83 108 21 139 23 370 22 l200
-1 0 -55z m367 -44 c91 -30 151 -51 351 -125 26 -10 52 -22 58 -28 9 -9 -11
-93 -30 -121 -4 -8 -42 -18 -87 -23 -43 -6 -83 -14 -89 -18 -5 -4 -59 -18
-120 -31 -60 -13 -114 -26 -120 -30 -5 -4 -34 -13 -63 -20 -41 -9 -56 -10 -65
-1 -16 16 -15 219 2 296 12 55 45 135 56 135 2 0 50 -15 107 -34z m987 -60
c17 -20 2 -46 -25 -46 -29 0 -41 24 -24 45 16 19 34 19 49 1z m-1684 -66 c0
-18 -6 -26 -23 -28 -24 -4 -38 18 -28 44 3 9 15 14 28 12 17 -2 23 -10 23 -28z
m1250 -175 c0 -30 -39 -27 -43 3 -3 20 0 23 20 20 15 -2 23 -10 23 -23z m-107
-58 l17 -27 -145 -140 c-185 -178 -275 -254 -295 -246 -26 10 -109 133 -141
211 -26 61 -29 76 -18 86 14 11 97 35 244 70 47 11 94 24 105 30 11 5 53 16
94 24 41 9 77 18 80 21 12 12 44 -3 59 -29z m-918 -42 c26 -32 -13 -81 -47
-59 -35 22 -23 74 17 74 10 0 23 -7 30 -15z m1083 -120 c-2 -60 -7 -119 -12
-130 -5 -11 -18 -78 -29 -150 -24 -156 -45 -219 -85 -262 -24 -25 -39 -33 -66
-33 -33 0 -81 31 -81 53 0 5 27 63 60 129 59 118 82 188 62 188 -5 0 -13 -6
-16 -12 -52 -107 -144 -272 -152 -275 -11 -4 -141 100 -157 125 -4 6 -13 12
-19 12 -6 0 -19 7 -29 16 -17 15 -6 29 199 233 l217 216 55 0 55 0 -2 -110z
m-2272 3 c5 -186 -3 -483 -13 -495 -32 -39 -98 -52 -98 -20 0 8 -14 39 -30 70
-34 64 -38 113 -16 192 32 114 117 285 142 285 9 0 14 -12 15 -32z m3424 -95
c18 -43 15 -49 -32 -57 -21 -4 -50 -9 -65 -12 -28 -6 -28 -5 -28 50 l0 55 48
3 c59 4 59 4 77 -39z m69 -164 c14 -33 26 -66 26 -74 0 -9 -19 -16 -57 -21
-46 -5 -63 -13 -85 -37 -16 -16 -28 -36 -28 -43 0 -27 30 -27 58 -1 19 18 43
27 83 32 l57 7 12 -51 c6 -27 9 -55 5 -61 -3 -5 -22 -10 -41 -10 -49 0 -82
-21 -134 -84 -41 -51 -48 -55 -78 -50 -46 7 -122 41 -122 54 0 7 16 31 35 54
48 59 46 86 -11 159 l-47 59 48 48 c44 45 54 50 124 63 127 25 125 26 155 -44z
m-1876 -58 c59 -67 242 -223 351 -299 58 -41 82 -52 113 -52 73 0 129 47 173
143 15 31 30 57 34 57 5 0 24 -12 44 -27 19 -16 50 -36 68 -46 21 -12 29 -21
21 -26 -15 -9 -236 -360 -272 -431 -15 -30 -49 -140 -75 -245 -26 -104 -66
-246 -90 -315 l-42 -125 -76 -3 c-68 -3 -77 -1 -87 17 -8 17 -6 28 14 58 18
28 26 59 31 115 6 71 10 81 41 112 40 40 43 68 9 101 -30 31 -85 33 -124 6
-24 -17 -37 -19 -104 -12 -42 4 -82 12 -87 17 -15 15 -51 320 -53 454 -1 72 3
137 12 173 9 38 11 64 5 72 -5 7 -37 45 -71 84 -35 39 -63 78 -63 86 0 12 155
144 171 145 3 0 29 -26 57 -59z m1369 -145 c39 -42 42 -70 11 -96 -13 -10 -39
-33 -59 -49 -51 -43 -80 -41 -113 9 -39 60 -36 109 11 150 32 28 41 32 77 27
30 -4 50 -15 73 -41z m-2887 -157 c41 -34 85 -65 97 -69 11 -5 144 -9 294 -10
230 0 276 -3 289 -16 21 -21 15 -201 -11 -322 -38 -182 -115 -300 -369 -568
-134 -141 -171 -209 -195 -357 l-6 -38 -67 3 c-64 3 -67 4 -70 30 -2 18 3 30
16 37 27 15 44 65 32 97 -8 21 -2 39 43 117 l52 91 44 1 c113 3 106 155 -7
155 -20 0 -44 -7 -53 -16 -17 -15 -25 -15 -106 8 l-88 24 5 64 c17 220 -3 458
-57 698 -16 70 -16 73 3 86 10 8 28 21 39 30 11 8 25 16 30 16 6 0 44 -27 85
-61z m3494 53 c3 -5 8 -31 12 -59 l6 -51 -48 -4 c-66 -5 -154 2 -154 13 0 5
18 29 41 54 33 36 48 45 82 48 23 2 45 4 49 5 4 1 9 -2 12 -6z m-2114 -63 c0
-12 -29 -24 -37 -16 -3 4 -3 13 0 21 6 16 37 11 37 -5z m1613 -15 c133 -112
426 -160 637 -105 87 23 210 76 260 111 47 33 47 23 0 -25 -94 -96 -248 -173
-393 -196 -148 -23 -377 2 -487 53 -70 32 -170 91 -170 100 0 24 79 88 109 88
7 0 27 -12 44 -26z m-2220 -18 c8 -21 -16 -48 -36 -40 -17 6 -23 35 -10 47 11
12 41 7 46 -7z m1582 -121 c13 -115 13 -119 -10 -150 -13 -16 -37 -55 -53 -86
-27 -51 -31 -68 -34 -162 -3 -87 -7 -109 -23 -127 -18 -20 -18 -24 -4 -48 9
-17 26 -29 44 -32 37 -6 57 -21 118 -87 54 -60 60 -94 27 -156 -36 -66 -21
-113 37 -119 70 -6 99 71 43 120 -27 24 -30 32 -30 88 0 65 4 72 66 107 37 20
48 12 65 -45 10 -35 13 -365 4 -390 -4 -9 -30 -25 -58 -36 -29 -10 -52 -25
-52 -33 0 -14 11 -15 75 -7 19 2 26 -3 33 -27 5 -16 19 -51 32 -78 l23 -47
-31 -16 c-24 -13 -35 -14 -49 -5 -35 22 -95 13 -130 -18 l-33 -29 -57 30 c-31
16 -66 41 -79 54 -20 22 -21 26 -8 50 7 15 30 45 50 68 48 55 53 73 29 93 -15
13 -20 30 -20 66 0 98 -31 160 -204 411 -67 97 -68 99 -62 148 4 27 11 59 16
71 5 12 17 48 25 79 9 32 33 81 53 110 32 47 57 89 124 208 48 84 63 83 73 -5z
m1186 -322 c-5 -83 -12 -156 -15 -162 -16 -25 -250 -6 -268 22 -4 6 -8 33 -8
60 l0 47 65 0 c51 0 72 -5 94 -21 36 -26 65 -19 81 21 10 25 10 34 -4 55 -19
29 -70 35 -80 10 -4 -11 -21 -15 -63 -15 -103 0 -106 3 -118 91 l-7 46 84 -4
c45 -2 117 0 158 5 41 4 78 5 83 2 4 -3 3 -74 -2 -157z m-1131 85 c6 -24 15
-52 20 -63 5 -11 35 -78 65 -150 l56 -129 -33 -28 c-18 -15 -45 -32 -60 -39
-24 -10 -31 -8 -71 25 -29 24 -47 47 -51 68 -3 17 -13 39 -21 49 -22 24 -16
181 9 229 20 38 55 80 67 80 5 0 13 -19 19 -42z m-1616 -107 c47 -48 46 -77
-2 -75 -67 4 -99 47 -70 94 18 28 29 25 72 -19z m2656 9 c0 -5 -4 -10 -10 -10
-5 0 -10 5 -10 10 0 6 5 10 10 10 6 0 10 -4 10 -10z m-2261 -34 c22 -26 -4
-53 -61 -66 -29 -6 -72 -17 -96 -25 -62 -22 -124 -20 -139 4 -18 29 9 45 117
66 52 10 102 22 110 26 23 13 56 10 69 -5z m546 -181 c0 -30 -39 -27 -43 3 -3
20 0 23 20 20 15 -2 23 -10 23 -23z m555 -1 c0 -16 -26 -19 -35 -4 -3 6 -4 14
0 20 8 13 35 1 35 -16z m1127 0 c51 -4 93 -11 93 -15 0 -4 -5 -31 -11 -59 -10
-46 -13 -50 -39 -50 -31 0 -144 24 -185 40 -26 10 -32 38 -19 87 5 18 10 20
37 12 17 -5 73 -12 124 -15z m-2622 -16 c-31 -133 -38 -175 -42 -252 -3 -49
-1 -106 5 -125 6 -20 19 -76 30 -126 25 -117 39 -150 84 -209 42 -54 46 -66
22 -66 -9 0 -32 -16 -51 -36 l-34 -37 -33 32 c-45 44 -76 41 -133 -11 -39 -37
-52 -43 -90 -43 -27 0 -47 5 -53 14 -4 8 -8 78 -8 155 1 78 -2 159 -6 182 -7
37 -5 41 19 52 61 28 116 5 127 -53 5 -22 10 -44 11 -50 5 -12 15 -55 22 -90
7 -31 35 -33 35 -2 0 12 -5 59 -12 105 -8 63 -8 86 0 94 20 20 15 86 -7 98
-34 17 -64 11 -90 -20 -20 -23 -36 -30 -70 -32 -50 -3 -50 -3 -91 102 -24 63
-32 46 85 177 39 43 82 94 96 113 23 31 33 35 85 41 107 11 105 11 99 -13z
m859 -27 c16 -14 18 -26 13 -99 -7 -90 -29 -135 -75 -148 -29 -8 -62 -51 -62
-81 0 -14 15 -39 35 -60 34 -35 35 -38 35 -119 0 -116 1 -114 -86 -114 -41 0
-74 4 -74 9 0 5 7 94 16 198 10 119 14 232 10 309 -3 67 -4 123 -1 125 2 2 41
3 87 1 59 -3 88 -9 102 -21z m1676 -115 c30 -8 72 -18 93 -21 32 -5 37 -9 37
-33 0 -63 -8 -72 -64 -72 -47 0 -151 22 -163 34 -3 3 -2 30 2 61 5 46 10 55
23 51 9 -2 42 -12 72 -20z m-3363 -41 c45 -14 84 -29 87 -34 3 -5 -19 -54 -50
-109 -41 -73 -63 -102 -81 -107 -59 -14 -83 -85 -42 -124 15 -13 20 -28 17
-52 l-3 -34 -75 0 -75 0 1 55 c1 37 16 98 49 190 26 74 54 159 62 188 9 28 18
52 21 52 3 0 43 -11 89 -25z m202 2 c15 -19 -10 -53 -33 -44 -16 6 -22 38 -9
50 10 11 30 8 42 -6z m3142 -132 c30 -3 68 -8 84 -9 28 -3 30 -6 29 -46 0 -23
-7 -45 -13 -50 -20 -11 -163 -22 -172 -13 -12 12 -23 98 -15 118 3 10 12 15
20 12 7 -3 37 -8 67 -12z m-828 -9 c8 -20 -20 -43 -35 -28 -14 14 -3 42 16 42
7 0 16 -6 19 -14z m-848 -36 c0 -29 -32 -41 -41 -16 -9 24 4 48 23 44 12 -2
18 -12 18 -28z m171 -54 c3 -7 -2 -39 -11 -70 -9 -31 -16 -81 -16 -111 l0 -55
-60 0 -59 0 0 113 c0 75 4 117 12 125 17 17 127 16 134 -2z m-1146 -11 c0 -8
-7 -15 -15 -15 -8 0 -15 7 -15 15 0 8 7 15 15 15 8 0 15 -7 15 -15z m2775 -92
c6 -35 4 -39 -51 -87 -32 -28 -62 -51 -68 -51 -13 0 -65 103 -68 136 -3 23 0
24 62 30 126 11 117 13 125 -28z m-3475 7 c0 -13 -7 -20 -20 -20 -13 0 -20 7
-20 20 0 13 7 20 20 20 13 0 20 -7 20 -20z m3851 -27 c30 -18 37 -37 19 -48
-17 -10 -60 23 -60 45 0 24 4 25 41 3z m-51 -88 c30 -32 23 -47 -44 -92 -70
-48 -86 -45 -86 15 0 45 2 49 34 60 19 7 40 19 46 27 17 20 23 19 50 -10z
m-238 -7 l47 -23 1 -59 0 -59 -55 6 c-59 6 -145 41 -145 59 0 10 89 97 100 98
3 0 26 -10 52 -22z m-3397 -109 c16 -30 13 -49 -8 -49 -6 0 -26 -14 -44 -32
l-32 -31 -21 26 c-17 22 -30 27 -64 27 -35 0 -49 -6 -77 -34 -31 -32 -39 -35
-99 -36 -100 -2 -93 -7 -86 52 4 28 13 65 20 82 l13 31 191 -3 192 -3 15 -30z
m1702 -4 l23 -34 -34 -16 c-18 -9 -39 -27 -46 -40 -17 -32 -19 -31 -53 5 -42
44 -85 41 -141 -10 -45 -42 -67 -47 -148 -34 -35 6 -38 9 -38 39 0 17 7 52 16
78 l16 47 191 0 192 0 22 -35z m869 -80 c9 -38 -2 -57 -32 -53 -39 4 -53 32
-30 57 26 29 54 27 62 -4z m-1766 -20 c16 -20 4 -35 -29 -35 -37 0 -44 10 -24
32 20 22 36 23 53 3z m948 -12 c3 -17 -3 -23 -28 -28 -44 -10 -58 7 -30 35 26
26 54 23 58 -7z m-1713 -3 c0 -16 -37 -25 -62 -16 -13 5 -13 9 -2 22 15 19 64
15 64 -6z"/>
<path d="M2756 3152 c-8 -13 11 -35 23 -28 16 10 14 36 -3 36 -8 0 -17 -4 -20
-8z"/>
</g>
</svg>
